PathFileType	4	(X/Y/Z)	/Users/itak/Documents/Research/Walk-IL/dataset/trc/00068_00006.trc
DataRate	CameraRate	NumFrames	NumMarkers	Units	OrigDataRate	OrigDataStartFrame	OrigNumFrames
100.000000	100.000000	4	53	mm	100.000000	529	706
Frame#	Time	RPSI			LPSI			L3			STRN			T10			C7			CLAV			RBAK			LBAK			LSHO			LUPA			LAEL			LAOL			LWTS			LWPS			LFRA			LIFD			LHPS			LHTS			RSHO			RUPA			RAEL			RAOL			RWTS			RWPS			RFRA			RIFD			RHTS			RHPS			RBHD			LFHD			RFHD			LBHD			LHIP			RHIP			RASI			LASI			LKNE			LTHI			LANK			LTIP			LTOE			LMT1			LMT5			LHEE			RKNE			RTHI			RANK			RTIP			RTOE			RMT1			RMT5			RHEE			
		X1	Y1	Z1	X2	Y2	Z2	X3	Y3	Z3	X4	Y4	Z4	X5	Y5	Z5	X6	Y6	Z6	X7	Y7	Z7	X8	Y8	Z8	X9	Y9	Z9	X10	Y10	Z10	X11	Y11	Z11	X12	Y12	Z12	X13	Y13	Z13	X14	Y14	Z14	X15	Y15	Z15	X16	Y16	Z16	X17	Y17	Z17	X18	Y18	Z18	X19	Y19	Z19	X20	Y20	Z20	X21	Y21	Z21	X22	Y22	Z22	X23	Y23	Z23	X24	Y24	Z24	X25	Y25	Z25	X26	Y26	Z26	X27	Y27	Z27	X28	Y28	Z28	X29	Y29	Z29	X30	Y30	Z30	X31	Y31	Z31	X32	Y32	Z32	X33	Y33	Z33	X34	Y34	Z34	X35	Y35	Z35	X36	Y36	Z36	X37	Y37	Z37	X38	Y38	Z38	X39	Y39	Z39	X40	Y40	Z40	X41	Y41	Z41	X42	Y42	Z42	X43	Y43	Z43	X44	Y44	Z44	X45	Y45	Z45	X46	Y46	Z46	X47	Y47	Z47	X48	Y48	Z48	X49	Y49	Z49	X50	Y50	Z50	X51	Y51	Z51	X52	Y52	Z52	X53	Y53	Z53	

530	5.29	722.0526733398438	1013.482299804688	388.655517578125	885.7421264648438	999.71923828125	447.3392639160156	806.8684692382812	1069.077880859375	422.9274291992188	700.1130981445312	1271.7001953125	652.027587890625	815.6067504882812	1202.689086914062	408.7507629394531	788.252685546875	1470.273315429688	458.1922607421875	712.3588256835938	1385.991333007812	622.450927734375	750.310791015625	1328.809204101562	372.9308776855469	887.3709106445312	1435.601196289062	478.2285766601562	912.7290649414062	1444.4970703125	599.3963012695312	997.0933837890625	1323.447143554688	610.2636108398438	1026.624145507812	1112.346801757812	638.8685913085938	965.0233764648438	1089.515014648438	553.836669921875	930.3894653320312	890.2200927734375	738.671142578125	1002.902404785156	868.864990234375	702.0153198242188	1025.6533203125	1006.10693359375	672.88134765625	893.3135986328125	711.513427734375	764.9259033203125	983.6633911132812	793.8429565429688	744.6572875976562	921.4414672851562	812.9750366210938	772.8992309570312	606.3121337890625	1432.28564453125	439.5433959960938	557.4004516601562	1367.039306640625	398.4583129882812	527.9503173828125	1113.675903320312	333.4836730957031	601.4077758789062	1085.22802734375	392.3990173339844	482.9608764648438	876.0431518554688	498.28564453125	470.5960693359375	851.9203491210938	415.0230712890625	507.7679443359375	1030.488159179688	343.0605773925781	507.2825622558594	688.2562866210938	527.3424072265625	475.9088745117188	773.064208984375	527.2498779296875	456.678466796875	763.2536010742188	452.2373352050781	813.9848022460938	1666.535034179688	561.779052734375	598.762939453125	1663.95458984375	578.2896118164062	677.15087890625	1682.721313476562	675.2843627929688	723.2708740234375	1638.746948242188	462.3106689453125	927.9209594726562	945.787841796875	582.888671875	624.6744995117188	941.1513671875	418.1454162597656	593.6270751953125	961.9424438476562	541.0052490234375	832.7586059570312	960.0204467773438	659.8209838867188	833.9634399414062	503.9293823242188	771.0155639648438	886.2325439453125	642.96826171875	718.2486572265625	1009.176025390625	181.0168151855469	436.4783020019531	939.8429565429688	332.201904296875	598.9739990234375	958.582275390625	70.19535827636719	597.2486572265625	917.401123046875	91.29556274414062	543.6912231445312	1024.8916015625	116.2845840454102	521.966552734375	947.59228515625	206.1901397705078	374.7079772949219	663.9545288085938	500.7342224121094	563.5931396484375	601.6024169921875	764.3468017578125	514.9613037109375	778.4000244140625	30.21546363830566	531.0142822265625	686.2603149414062	374.8559265136719	558.4410400390625	734.3225708007812	37.10884857177734	746.0630493164062	791.7380981445312	44.21604919433594	704.11181640625	717.7304077148438	38.98484802246094	639.4957275390625	847.7535400390625	35.3903694152832	510.6283569335938	
531	5.3	722.26806640625	1013.8017578125	394.8254699707031	885.0936889648438	999.8922119140625	456.0854797363281	806.5140380859375	1069.39208984375	430.15625	696.538330078125	1272.071533203125	657.6368408203125	814.8848876953125	1203.11279296875	415.9555358886719	786.8887329101562	1470.660888671875	465.0036315917969	709.0175170898438	1386.239990234375	628.14404296875	749.9173583984375	1329.189208984375	379.3357543945312	885.7314453125	1435.9892578125	486.1370544433594	909.8010864257812	1444.8251953125	607.5611572265625	994.2393798828125	1323.852294921875	619.0762329101562	1023.789611816406	1112.727172851562	647.5021362304688	963.144775390625	1090.004638671875	561.7684326171875	926.99609375	889.9939575195312	745.3465576171875	1000.037658691406	868.9505004882812	709.508056640625	1022.6904296875	1006.365905761719	681.1058349609375	890.091552734375	711.0181884765625	770.2535400390625	980.5225219726562	793.690673828125	751.5750122070312	917.8370361328125	812.5303344726562	779.0730590820312	605.1751098632812	1432.625244140625	444.3261413574219	556.7394409179688	1367.30029296875	402.7227783203125	528.2052612304688	1113.670288085938	337.7301025390625	600.4730834960938	1085.09765625	398.2444458007812	480.9890747070312	877.3701171875	503.8597106933594	469.8518371582031	852.434326171875	420.682373046875	507.8886108398438	1030.417236328125	347.5715026855469	504.8948364257812	689.9503784179688	535.2042236328125	473.5204162597656	774.7147827148438	533.7572631835938	455.4794311523438	764.135009765625	458.5707702636719	811.5106201171875	1666.91845703125	568.6964721679688	596.1956176757812	1664.355834960938	583.365966796875	673.7265014648438	1683.107055664062	681.0245971679688	721.624755859375	1639.137329101562	468.4588012695312	925.0192260742188	946.295654296875	592.4872436523438	624.47900390625	941.4462890625	422.7217102050781	591.3369140625	962.0923461914062	544.961181640625	828.6696166992188	960.8914184570312	667.9527587890625	823.6416015625	507.4421691894531	783.8694458007812	878.5379638671875	645.1035766601562	730.4214477539062	1005.867553710938	174.1144104003906	464.6371154785156	932.9476318359375	330.2471313476562	620.06982421875	949.0026245117188	69.69669342041016	627.5773315429688	909.8450317382812	89.06851959228516	571.839111328125	1018.109069824219	112.5668716430664	552.9747314453125	946.6611938476562	197.3001861572266	399.767578125	663.1014404296875	500.4806213378906	564.72998046875	600.9010009765625	764.3496704101562	517.9735717773438	778.4540405273438	30.30849266052246	531.1026000976562	686.0502319335938	374.8102722167969	559.3331909179688	734.5020141601562	37.03416442871094	746.1253662109375	791.8878784179688	44.0407600402832	704.2055053710938	717.7039184570312	38.98027420043945	639.5289306640625	847.857421875	35.51120758056641	510.7497253417969	
532	5.31	722.4911499023438	1014.026062011719	400.9394836425781	884.39013671875	1000.017150878906	464.7979736328125	806.1431884765625	1069.653442382812	437.3047180175781	692.9583740234375	1272.318359375	663.2047119140625	814.1682739257812	1203.466430664062	423.1487731933594	785.48974609375	1470.959350585938	471.8125305175781	705.6834716796875	1386.38037109375	633.8135375976562	749.5281982421875	1329.499877929688	385.7275695800781	884.0586547851562	1436.304321289062	494.0318908691406	906.8245849609375	1445.065673828125	615.700439453125	991.3487548828125	1324.165405273438	627.8648071289062	1020.89990234375	1113.026123046875	656.1407470703125	961.22021484375	1090.39892578125	569.7222900390625	923.5633544921875	889.7151489257812	752.065185546875	997.1527099609375	868.9921875	717.0863037109375	1019.670837402344	1006.559936523438	689.3726196289062	886.9202880859375	710.4658813476562	775.6893310546875	977.3949584960938	793.52197265625	758.6112060546875	914.2303466796875	812.054443359375	785.3131713867188	604.0347290039062	1432.8623046875	449.0975952148438	556.0963745117188	1367.466674804688	406.9772338867188	528.4692993164062	1113.59765625	341.9116821289062	599.4989624023438	1084.840576171875	404.0587158203125	479.0888671875	878.588623046875	509.3170471191406	469.0465393066406	852.8820190429688	426.2372436523438	507.9903869628906	1030.27734375	352.0236511230469	502.5289916992188	691.5216064453125	542.7882080078125	471.1639709472656	776.2631225585938	540.066162109375	454.2230529785156	764.9598388671875	464.775390625	809.0103759765625	1667.200805664062	575.621826171875	593.5927124023438	1664.6513671875	588.4561157226562	670.2769775390625	1683.38427734375	686.7672729492188	719.94970703125	1639.430541992188	474.6190795898438	922.0696411132812	946.7437133789062	602.0007934570312	624.291748046875	941.6737060546875	427.3173217773438	589.043212890625	962.1697387695312	548.8526000976562	824.534912109375	961.6329956054688	675.9251098632812	813.2544555664062	510.86669921875	796.1649780273438	870.7727661132812	647.139892578125	742.1762084960938	1001.558471679688	166.7974243164062	493.2245788574219	925.44775390625	328.0127563476562	641.177490234375	937.7315063476562	69.07448577880859	657.7444458007812	900.828857421875	86.79032897949219	599.9263305664062	1009.883972167969	108.5081481933594	584.1756591796875	945.0055541992188	188.1132354736328	425.336181640625	662.3724365234375	500.213623046875	566.0729370117188	600.1726684570312	764.2916259765625	521.0726928710938	778.5459594726562	30.4198169708252	531.2249755859375	685.8690795898438	374.760009765625	560.4179077148438	734.690673828125	36.95878219604492	746.2083740234375	792.0712890625	43.82471084594727	704.3355712890625	717.7134399414062	39.00608444213867	639.582275390625	847.9888305664062	35.60704040527344	510.8898010253906	
533	5.32	722.7078857421875	1014.161804199219	407.0129699707031	883.630615234375	1000.100463867188	473.4704284667969	805.7457275390625	1069.864379882812	444.3871765136719	689.369384765625	1272.448364257812	668.7398681640625	813.45361328125	1203.752075195312	430.3348693847656	784.0543823242188	1471.174560546875	478.6257629394531	702.3740234375	1386.436157226562	639.4953002929688	749.1500854492188	1329.744750976562	392.1109619140625	882.3521118164062	1436.54736328125	501.9214172363281	903.806884765625	1445.227661132812	623.822998046875	988.4168701171875	1324.396850585938	636.6395263671875	1017.950988769531	1113.248413085938	664.7793579101562	959.2254638671875	1090.711303710938	577.7010498046875	920.114501953125	889.3934936523438	758.8466796875	994.2423706054688	868.985595703125	724.7227172851562	1016.596801757812	1006.688720703125	697.6676025390625	883.8002319335938	709.8597412109375	781.2514038085938	974.2701416015625	793.325927734375	765.737060546875	910.6483764648438	811.5444946289062	791.6332397460938	602.8943481445312	1433.00048828125	453.8590393066406	555.4761962890625	1367.545532226562	411.2175903320312	528.7401123046875	1113.466552734375	346.0204772949219	598.555419921875	1084.531494140625	409.7391052246094	477.2655334472656	879.7113647460938	514.6732177734375	468.1608581542969	853.2761840820312	431.7019958496094	508.0604858398438	1030.076293945312	356.4190673828125	500.2057495117188	692.9732666015625	550.109375	468.8687133789062	777.7175903320312	546.2047119140625	452.8922729492188	765.7367553710938	470.8720703125	806.4775390625	1667.386962890625	582.5584106445312	590.9609985351562	1664.843627929688	593.5655517578125	666.79833984375	1683.555297851562	692.517822265625	718.2494506835938	1639.634155273438	480.7958984375	919.0660400390625	947.1378173828125	611.427978515625	624.1094970703125	941.8223876953125	431.9197387695312	586.7349853515625	962.1928100585938	552.684814453125	820.3432006835938	962.25341796875	683.7315063476562	802.8441162109375	514.1947021484375	807.9192504882812	862.9498901367188	649.08544921875	753.5358276367188	996.1595458984375	159.1510772705078	522.1903686523438	917.3304443359375	325.5638427734375	662.2591552734375	924.7695922851562	68.40372467041016	687.61767578125	890.3323974609375	84.50608825683594	627.8319091796875	1000.172119140625	104.1892242431641	615.4558715820312	942.5296630859375	178.7256927490234	451.375	661.7562866210938	499.94482421875	567.643310546875	599.4000244140625	764.1680908203125	524.2711181640625	778.6630859375	30.55682373046875	531.3749389648438	685.714111328125	374.6990661621094	561.7092895507812	734.8746948242188	36.88346481323242	746.3157958984375	792.281982421875	43.57809829711914	704.5001220703125	717.758544921875	39.05905151367188	639.65625	848.1378173828125	35.68832397460938	511.0318298339844	
